# xmcd CD database file
#
# Track frame offsets:
#	150
#	15240
#	32877
#	48655
#	61767
#	78172
#	93310
#	107875
#	124870
#	142657
#
# Disc length: 2253 seconds
#
# Revision: 0
# Processed by: cddbd v1.5.2PL0 Copyright (c) Steve Scherf et al.
# Submitted via: CDex 1.70beta2
#
DISCID=7408cb0a
DTITLE=Scott Hall - Panther Ciy
DYEAR=1996
DGENRE=Country
TTITLE0=Fever
TTITLE1=The Angel In The Girl
TTITLE2=She Spends The Mornings With Me
TTITLE3=Without You On My Mind
TTITLE4=You Don't Live Here Anymore
TTITLE5=Fun Toys
TTITLE6=Two Loves Too Late
TTITLE7=Lyin' Alone
TTITLE8=Know What You Stand To Lose
TTITLE9=Grandads Song
EXTD=YEAR: 1996
EXTT0=
EXTT1=
EXTT2=
EXTT3=
EXTT4=
EXTT5=
EXTT6=
EXTT7=
EXTT8=
EXTT9=
PLAYORDER=
